<?xml version="1.0" standalone="no"?>
<!DOCTYPE svg PUBLIC "-//W3C//DTD SVG 20010904//EN"
 "http://www.w3.org/TR/2001/REC-SVG-20010904/DTD/svg10.dtd">
<svg version="1.0" xmlns="http://www.w3.org/2000/svg"
 width="300.000000pt" height="300.000000pt" viewBox="0 0 300.000000 300.000000"
 preserveAspectRatio="xMidYMid meet">
<metadata>
Created by potrace 1.11, written by Peter Selinger 2001-2013
</metadata>
<g transform="translate(0.000000,300.000000) scale(0.100000,-0.100000)"
fill="#000000" stroke="none">
<path d="M0 1500 l0 -1500 1500 0 1500 0 0 1500 0 1500 -1500 0 -1500 0 0
-1500z m2028 544 c21 -6 22 -12 22 -91 0 -83 0 -84 -22 -76 -13 4 -43 8 -67 8
-62 -1 -81 -27 -81 -111 l0 -64 75 0 76 0 -3 -77 -3 -78 -72 -3 -73 -3 0 -259
0 -260 -110 0 -110 0 0 260 0 260 -55 0 -55 0 0 80 0 80 54 0 53 0 5 83 c7
129 63 209 168 242 47 14 158 19 198 9z m-588 -514 l0 -500 -110 0 -110 0 0
36 0 36 -34 -30 c-102 -90 -280 -80 -373 20 -12 12 -34 50 -50 83 -26 56 -28
69 -28 180 1 102 4 129 24 180 31 77 107 155 175 178 97 33 206 18 261 -37
l25 -25 0 189 0 190 110 0 110 0 0 -500z"/>
<path d="M1033 1554 c-105 -52 -113 -302 -11 -364 43 -26 87 -25 128 3 55 37
70 78 70 187 0 110 -18 152 -75 176 -44 18 -72 18 -112 -2z"/>
</g>
</svg>
